<svg width="31" height="31" viewBox="0 0 31 31" fill="none" xmlns="http://www.w3.org/2000/svg">
<g clip-path="url(#clip0_104_4231)">
<path d="M15.5 0L18.5328 4.18128L23.25 2.07661L23.7859 7.21412L28.9234 7.75L26.8187 12.4672L31 15.5L26.8187 18.5328L28.9234 23.25L23.7859 23.7859L23.25 28.9234L18.5328 26.8187L15.5 31L12.4672 26.8187L7.75 28.9234L7.21412 23.7859L2.07661 23.25L4.18128 18.5328L0 15.5L4.18128 12.4672L2.07661 7.75L7.21412 7.21412L7.75 2.07661L12.4672 4.18128L15.5 0Z" fill="#5D33E2"/>
<path d="M9.6875 14.7548L14.4567 20.4183L22.0577 10.7308" stroke="white" stroke-width="2.98077" stroke-linecap="round"/>
</g>
<defs>
<clipPath id="clip0_104_4231">
<rect width="31" height="31" fill="white"/>
</clipPath>
</defs>
</svg>
