<svg width="27" height="27" viewBox="0 0 27 27" fill="none" xmlns="http://www.w3.org/2000/svg">
<g clip-path="url(#clip0_134_925)">
<path d="M13.5 0L16.1415 3.64176L20.25 1.80866L20.7167 6.28327L25.1913 6.75L23.3582 10.8585L27 13.5L23.3582 16.1415L25.1913 20.25L20.7167 20.7167L20.25 25.1913L16.1415 23.3582L13.5 27L10.8585 23.3582L6.75 25.1913L6.28327 20.7167L1.80866 20.25L3.64176 16.1415L0 13.5L3.64176 10.8585L1.80866 6.75L6.28327 6.28327L6.75 1.80866L10.8585 3.64176L13.5 0Z" fill="#5D33E2"/>
<path d="M8.4375 12.851L12.5913 17.7837L19.2115 9.34616" stroke="white" stroke-width="2.59615" stroke-linecap="round"/>
</g>
<defs>
<clipPath id="clip0_134_925">
<rect width="27" height="27" fill="white"/>
</clipPath>
</defs>
</svg>
