<svg width="26" height="26" viewBox="0 0 26 26" fill="none" xmlns="http://www.w3.org/2000/svg">
<circle cx="13" cy="13" r="11.5" stroke="white" stroke-width="3"/>
<circle cx="13" cy="10.0286" r="4.07143" stroke="white" stroke-width="3"/>
<path d="M20.5092 20.1656C20.6007 20.989 21.3423 21.5823 22.1656 21.4908C22.989 21.3993 23.5823 20.6577 23.4908 19.8344L20.5092 20.1656ZM23.4908 19.8344C23.0503 15.8694 19.9445 12.44 16.3638 11.5448L15.6362 14.4552C17.9983 15.0458 20.2069 17.4449 20.5092 20.1656L23.4908 19.8344Z" fill="white"/>
<path d="M4.99083 19.6656C4.89934 20.489 4.15771 21.0823 3.33435 20.9908C2.51099 20.8993 1.91769 20.1577 2.00917 19.3344L4.99083 19.6656ZM2.00917 19.3344C2.47639 15.1294 6.3287 12.3717 9.6362 11.5448L10.3638 14.4552C7.72844 15.1141 5.26647 17.1849 4.99083 19.6656L2.00917 19.3344Z" fill="white"/>
</svg>
