<svg width="26" height="26" viewBox="0 0 26 26" fill="none" xmlns="http://www.w3.org/2000/svg">
<path d="M14.0833 12.0792H7.58331" stroke="white" stroke-width="3" stroke-linecap="round" stroke-linejoin="round"/>
<path d="M12.2525 3.08752C14.4625 3.08752 16.25 4.46336 16.25 6.67335" stroke="white" stroke-width="3" stroke-linecap="round" stroke-linejoin="round"/>
<path d="M2.16669 10.9958V7.07416C2.16669 4.86416 3.95419 3.07666 6.16419 3.07666H8.25501" stroke="white" stroke-width="3" stroke-linecap="round" stroke-linejoin="round"/>
<path d="M2.16669 10.9958C2.16669 8.60164 4.10585 6.66248 6.50002 6.66248H17.3334C19.7167 6.66248 21.6667 8.61248 21.6667 10.9958V12.5666H20.4967C19.89 12.5666 19.3375 12.805 18.9367 13.2166C18.395 13.7366 18.135 14.5383 18.3517 15.3616C18.6225 16.3691 19.6192 17.0083 20.6592 17.0083H21.6667V18.5791C21.6667 20.9733 19.7275 22.9125 17.3334 22.9125H6.50002C4.10585 22.9125 2.16669 20.9733 2.16669 18.5791V15.73" stroke="white" stroke-width="3" stroke-linecap="round" stroke-linejoin="round"/>
<path d="M23.8333 13.6717V15.9033C23.8333 16.51 23.335 17.0084 22.7175 17.0084H20.6267C19.4567 17.0084 18.3842 16.1525 18.2867 14.9825C18.2217 14.3 18.4817 13.6609 18.9367 13.2167C19.3375 12.805 19.89 12.5667 20.4967 12.5667H22.7175C23.335 12.5667 23.8333 13.065 23.8333 13.6717Z" stroke="white" stroke-width="3" stroke-linecap="round" stroke-linejoin="round"/>
</svg>
