<svg width="21" height="21" viewBox="0 0 21 21" fill="none" xmlns="http://www.w3.org/2000/svg">
<g clip-path="url(#clip0_108_4249)">
<path d="M10.9484 3.16804L12.3401 5.98806C12.7043 6.72592 13.4082 7.23735 14.2225 7.35567L17.3346 7.80788C17.7447 7.86747 17.9084 8.37146 17.6117 8.66072L15.3597 10.8558C14.7705 11.4301 14.5017 12.2576 14.6407 13.0686L15.1724 16.1681C15.2424 16.5766 14.8137 16.8881 14.4469 16.6952L11.6634 15.2318C10.935 14.8489 10.065 14.8489 9.33665 15.2318L6.55312 16.6952C6.18631 16.8881 5.75759 16.5766 5.82765 16.1681L6.35925 13.0686C6.49835 12.2576 6.22948 11.4301 5.64026 10.8558L3.38834 8.66072C3.09158 8.37146 3.25534 7.86747 3.66545 7.80788L6.77752 7.35567C7.5918 7.23735 8.29571 6.72592 8.65987 5.98806L10.0516 3.16804C10.235 2.79642 10.765 2.79642 10.9484 3.16804Z" stroke="#909090" stroke-width="2"/>
</g>
<defs>
<clipPath id="clip0_108_4249">
<rect width="21" height="21" fill="white"/>
</clipPath>
</defs>
</svg>
